<?xml version="1.0" encoding="UTF-8"?>
<svg width="248px" height="20px" viewBox="0 0 248 20" version="1.1" xmlns="http://www.w3.org/2000/svg" xmlns:xlink="http://www.w3.org/1999/xlink">
    <title>@1x编组备份 10</title>
    <g id="多租管理2025_1119" stroke="none" stroke-width="1" fill="none" fill-rule="evenodd">
        <g id="编组备份-10" transform="translate(0, -0)">
            <polygon id="Fill-1" fill="#FFFFFF" points="38.3548769 4.21052632 25.8589968 4.21052632 25.2631579 4.21052632 25.2631579 4.820212 25.2631579 19.3833861 25.2631579 20 25.8589968 20 27.8942219 20 28.4867134 20 28.4867134 19.3833861 28.4867134 13.0994665 37.0594294 13.0994665 37.6519209 13.0994665 37.6519209 12.4863167 37.6519209 11.145701 37.6519209 10.5325512 37.0594294 10.5325512 28.4867134 10.5325512 28.4867134 6.87443708 38.3548769 6.87443708 38.9473684 6.87443708 38.9473684 6.25782314 38.9473684 4.820212 38.9473684 4.21052632"></polygon>
            <g id="编组">
                <path d="M52.3011467,7.8494773 L50.2838619,7.8494773 L49.6693018,7.8494773 L49.6693018,8.46421005 L49.6693018,15.0456708 C49.5859716,15.629146 49.2838997,17.202445 46.1416575,17.4525058 C44.3708911,17.3899906 43.5584218,16.6571736 43.5063405,15.0699823 L43.5063405,8.46421005 L43.5063405,7.8494773 L42.8917804,7.8494773 L40.8744956,7.8494773 L40.2599355,7.8494773 L40.2599355,8.46421005 L40.2599355,15.2818393 C40.2286867,16.6502275 40.6002004,17.7477165 41.3675325,18.5326295 C42.2737482,19.4599382 43.7216101,19.9322752 45.6763973,19.9322752 C47.2909196,19.8836523 48.6242025,19.5120342 49.6693018,18.8278401 L49.6693018,19.0292779 L49.6693018,19.6440107 L50.2838619,19.6440107 L52.3011467,19.6440107 L52.9157068,19.6440107 L52.9157068,19.0292779 L52.9157068,8.46421005 L52.9157068,7.8494773 L52.3011467,7.8494773 Z" id="Fill-2" fill="#FFFFFF"></path>
                <polygon id="Fill-4" fill="#FFFFFF" points="69.535217 7.8494773 68.920657 7.8494773 68.920657 8.46421005 68.920657 19.1265238 68.920657 19.7412566 69.535217 19.7412566 71.5525019 19.7412566 72.1670619 19.7412566 72.1670619 19.1265238 72.1670619 8.46421005 72.1670619 7.8494773 71.5525019 7.8494773"></polygon>
                <polygon id="Fill-6" fill="#FFFFFF" points="71.5514602 3.81551071 69.5341754 3.81551071 68.9196153 3.81551071 68.9196153 4.43024346 68.9196153 6.54186782 68.9196153 7.15660056 69.5341754 7.15660056 71.5514602 7.15660056 72.1660203 7.15660056 72.1660203 6.54186782 72.1660203 4.43024346 72.1660203 3.81551071"></polygon>
                <path d="M84.6461038,14.4997048 C84.4134737,16.2119265 83.5107301,17.1496544 81.8510706,17.3927691 C81.3580337,17.4657035 80.8511085,17.4552843 80.3545995,17.3858229 C78.2574566,17.0940854 77.2505502,15.9514465 77.1949968,13.8432952 C77.2505502,11.6170597 78.2644008,10.4396902 80.3719599,10.1861564 C80.8441643,10.1271142 81.330257,10.1410065 81.7989893,10.2313062 C83.3892069,10.5404091 84.2988947,11.4503525 84.6079108,13.0410169 C84.7016573,13.5203001 84.7120735,14.0169486 84.6461038,14.4997048 M87.9619506,12.3776612 C87.4515533,10.0750182 85.7814775,7.80363283 81.2087338,7.65776404 L81.1948455,7.65776404 L81.1809571,7.65776404 C78.0699637,7.7029139 74.3513543,8.73788768 73.8965104,13.3014969 C73.8235965,13.985691 73.8687337,14.3677283 73.9347034,14.7324002 C74.302745,17.125343 75.8964348,19.6988851 80.9691596,19.9315806 L80.98652,19.9315806 L81.0073526,19.9315806 C83.9794624,19.8899038 87.4966904,18.9313375 88.0626412,14.7949154 C88.1737482,13.9127566 88.204997,13.4300003 87.9619506,12.3776612" id="Fill-8" fill="#FFFFFF"></path>
                <path d="M101.244434,8.9587747 C100.338219,8.03146598 98.8903567,7.56260202 96.9355695,7.56260202 L96.9286253,7.56260202 L96.9182091,7.56260202 C95.3175752,7.61122495 93.9842923,7.98284305 92.942665,8.66703713 L92.942665,8.46559928 L92.942665,7.85086653 L92.3281049,7.85086653 L90.3108201,7.85086653 L89.69626,7.85086653 L89.69626,8.46559928 L89.69626,19.12444 L89.69626,19.7391727 L90.3108201,19.7391727 L92.3281049,19.7391727 L92.942665,19.7391727 L92.942665,19.12444 L92.942665,12.5429792 C93.0259952,11.959504 93.3280671,10.389678 96.4703093,10.1361442 C98.2376036,10.1986594 99.0500729,10.9002188 99.1056263,12.4144757 L99.1056263,19.0306672 L99.1056263,19.6453999 L99.7201864,19.6453999 L101.737471,19.6453999 L102.352031,19.6453999 L102.352031,19.0306672 L102.352031,12.2095648 C102.38328,10.8446497 102.011766,9.7436877 101.244434,8.9587747" id="Fill-10" fill="#FFFFFF"></path>
                <path d="M119.693736,13.8446845 C118.988902,15.6888827 117.405629,16.7794256 114.912667,17.1406245 C114.062005,17.2656548 113.19051,17.2552356 112.34332,17.0989477 C109.829526,16.643976 108.287918,15.4388219 107.680302,13.4418088 C107.381702,12.4624041 107.406007,11.4031188 107.704607,10.4237141 C108.284446,8.53089293 109.576064,7.31184663 111.607237,6.74226374 C113.027322,6.34286111 114.541154,6.34980724 115.950822,6.78046747 C117.787559,7.33963116 119.013207,8.4405932 119.652071,10.104192 C120.113859,11.3023999 120.152052,12.6464766 119.693736,13.8446845 M123.519981,10.4306602 C122.658902,6.37064564 119.58263,4.1548293 114.357133,3.83530719 C114.218249,3.82153287 113.85368,3.81446879 113.614105,3.83183413 C108.044872,4.09578717 104.85402,6.38453791 104.117937,10.6390442 C104.02419,11.1947348 103.920028,12.6916264 104.249876,13.8759421 C105.083178,17.1579898 107.569195,19.1237454 111.669734,19.7419512 C113.325922,19.995485 114.839753,19.9260237 115.968183,19.7384781 C120.259687,19.1098531 122.794314,17.0364325 123.523453,13.5494738 C123.700529,12.5700691 123.728306,11.3267114 123.519981,10.4306602" id="Fill-12" fill="#FFFFFF"></path>
                <path d="M143.209166,12.1272532 C143.573736,10.8561109 144.729942,10.3837738 145.8549,10.1927552 C146.455571,10.0920363 147.073604,10.0885632 147.674275,10.2031744 C149.29227,10.5088042 149.882525,11.3284479 150.108211,12.1272532 L143.209166,12.1272532 Z M150.191541,15.5030737 C150.191541,15.5030737 150.170709,15.5378043 150.118627,15.6419963 C149.570037,16.6978085 148.455496,17.2152954 146.726395,17.2187685 C144.570226,17.1145765 143.393187,16.3088251 143.080699,14.7007953 L153.049072,14.7007953 L153.663632,14.7007953 L153.663632,13.6797138 C153.500444,9.09179314 150.382506,7.77897406 147.500671,7.55322474 C146.879167,7.51502101 146.660425,7.51502101 145.941702,7.56017087 C143.268192,7.78939326 140.386357,8.88688223 139.709299,12.3877331 C139.566943,12.9503699 139.559999,13.6936061 139.646801,14.6000764 C139.980122,16.9166117 141.4384,19.3477581 145.948646,19.7436877 C146.556262,19.8200952 147.570113,19.7818914 147.927738,19.7679992 C150.81999,19.5700344 152.701863,18.347515 153.528221,16.1247525 L153.531693,16.1108603 L150.191541,15.5030737 Z" id="Fill-14" fill="#FFFFFF"></path>
                <path d="M187.562697,12.1272532 C187.927267,10.8561109 189.083473,10.3837738 190.20843,10.1927552 C190.809102,10.0920363 191.427134,10.0885632 192.027806,10.2031744 C193.6458,10.5088042 194.236056,11.3284479 194.461742,12.1272532 L187.562697,12.1272532 Z M194.545072,15.5030737 C194.545072,15.5030737 194.524239,15.5378043 194.472158,15.6419963 C193.923568,16.6978085 192.809026,17.2152954 191.079925,17.2187685 C188.923757,17.1145765 187.746718,16.3088251 187.43423,14.7007953 L197.402603,14.7007953 L198.017163,14.7007953 L198.017163,13.6797138 C197.853974,9.09179314 194.736037,7.77897406 191.854201,7.55322474 C191.232697,7.51502101 191.013955,7.51502101 190.295233,7.56017087 C187.621723,7.78939326 184.739887,8.88688223 184.062829,12.3877331 C183.920474,12.9503699 183.91353,13.6936061 184.000332,14.6000764 C184.333653,16.9166117 185.791931,19.3477581 190.302177,19.7436877 C190.909793,19.8200952 191.923643,19.7818914 192.281269,19.7679992 C195.17352,19.5700344 197.055394,18.347515 197.881751,16.1247525 L197.885223,16.1108603 L194.545072,15.5030737 Z" id="Fill-16" fill="#FFFFFF"></path>
                <path d="M225.87479,12.1272532 C226.239359,10.8561109 227.395565,10.3837738 228.520523,10.1927552 C229.121195,10.0920363 229.739227,10.0885632 230.339898,10.2031744 C231.957893,10.5088042 232.548148,11.3284479 232.773834,12.1272532 L225.87479,12.1272532 Z M232.857164,15.5030737 C232.857164,15.5030737 232.836332,15.5378043 232.78425,15.6419963 C232.23566,16.6978085 231.121119,17.2152954 229.392018,17.2187685 C227.235849,17.1145765 226.05881,16.3088251 225.746322,14.7007953 L235.714695,14.7007953 L236.329255,14.7007953 L236.329255,13.6797138 C236.166067,9.09179314 233.048129,7.77897406 230.166294,7.55322474 C229.54479,7.51502101 229.326048,7.51502101 228.607325,7.56017087 C225.933815,7.78939326 223.05198,8.88688223 222.374922,12.3877331 C222.232566,12.9503699 222.225622,13.6936061 222.312424,14.6000764 C222.645745,16.9166117 224.104023,19.3477581 228.614269,19.7436877 C229.221885,19.8200952 230.235736,19.7818914 230.593361,19.7679992 C233.485613,19.5700344 235.367486,18.347515 236.193844,16.1247525 L236.197316,16.1108603 L232.857164,15.5030737 Z" id="Fill-18" fill="#FFFFFF"></path>
                <path d="M211.181595,9.00843955 C210.27538,8.08113083 208.827518,7.61226687 206.872731,7.61226687 L206.865786,7.61226687 L206.85537,7.61226687 C205.254736,7.6608898 203.921453,8.0325079 202.879826,8.71670198 L202.879826,8.51526413 L202.879826,7.90053138 L202.265266,7.90053138 L200.247981,7.90053138 L199.633421,7.90053138 L199.633421,8.51526413 L199.633421,19.1741048 L199.633421,19.7888376 L200.247981,19.7888376 L202.265266,19.7888376 L202.879826,19.7888376 L202.879826,19.1741048 L202.879826,12.592644 C202.963156,12.0091689 203.265228,10.4393429 206.40747,10.1858091 C208.174765,10.2483242 208.987234,10.9498837 209.042787,12.4641406 L209.042787,19.080332 L209.042787,19.6950648 L209.657347,19.6950648 L211.674632,19.6950648 L212.289192,19.6950648 L212.289192,19.080332 L212.289192,12.2592297 C212.320441,10.8943146 211.948927,9.79335255 211.181595,9.00843955" id="Fill-20" fill="#FFFFFF"></path>
                <path d="M246.871912,8.2572153 C246.090692,7.90296253 245.229613,7.72236307 244.316453,7.72236307 C243.090805,7.72236307 242.101259,8.11829264 241.368648,8.89625951 L241.368648,8.40655715 L241.368648,7.92032786 L240.879083,7.92032786 L238.820133,7.92032786 L238.334041,7.92032786 L238.334041,8.40655715 L238.334041,19.3015664 L238.334041,19.7877956 L238.820133,19.7877956 L240.879083,19.7877956 L241.368648,19.7877956 L241.368648,19.3015664 L241.368648,13.3139999 C241.368648,12.2859723 241.608222,11.5496822 242.087371,11.1259681 L242.108203,11.1086028 L242.125564,11.0877644 C242.622073,10.5355468 243.243577,10.2681207 244.021325,10.2681207 C244.59422,10.2681207 245.115034,10.3827319 245.569878,10.6084812 L245.972641,10.8099191 L246.205271,10.4244087 L247.087182,8.95182857 L247.368421,8.48296461 L246.871912,8.2572153 Z" id="Fill-22" fill="#FFFFFF"></path>
                <path d="M221.122192,18.7087139 L220.729845,17.8265551 L220.601378,17.5348175 L220.285418,17.5348175 C220.219448,17.5348175 220.108341,17.5417636 219.733355,17.5903866 C219.427811,17.6285903 219.271567,17.6355364 219.205597,17.6355364 L219.191709,17.6355364 L219.174349,17.6355364 C219.118795,17.6390095 219.066714,17.6390095 219.014632,17.6390095 C218.361879,17.6390095 218.122305,17.3993679 218.122305,16.7464314 L218.122305,9.97047894 L220.285418,9.97047894 L220.77151,9.97047894 L220.77151,9.48077658 L220.77151,8.20616122 L220.77151,7.71993193 L220.285418,7.71993193 L218.122305,7.71993193 L218.122305,4.47608794 L218.122305,3.77105546 L217.462608,4.02111624 L215.400186,4.80602924 L215.087698,4.92758657 L215.087698,5.26100094 L215.087698,7.71993193 L213.612059,7.71993193 L213.125966,7.71993193 L213.125966,8.20616122 L213.125966,9.48077658 L213.125966,9.97047894 L213.612059,9.97047894 L215.087698,9.97047894 L215.087698,16.7394853 C215.052977,17.6772132 215.292551,18.4169763 215.792532,18.9344632 C216.33765,19.5005731 217.181368,19.7888376 218.302854,19.7888376 C218.37924,19.7888376 218.455626,19.7888376 218.535484,19.7853645 L218.5459,19.7853645 L218.559789,19.7853645 C219.368786,19.7193762 220.129174,19.5804536 220.816648,19.3720696 L221.347878,19.2123085 L221.122192,18.7087139 Z" id="Fill-24" fill="#FFFFFF"></path>
                <path d="M182.229218,13.9197027 L179.677231,13.3292814 L179.24322,13.2320356 L179.104336,13.6557497 C178.319644,16.0695308 176.482908,17.2781579 173.493438,17.3441461 C170.163702,17.1218699 168.243636,15.6770743 167.656853,12.9333519 C167.493665,12.1588581 167.507553,11.3496336 167.68463,10.5786129 C168.347799,7.68902164 170.288698,6.17129163 173.590656,5.94901539 C176.035008,6.01500365 177.753693,6.99440836 178.850874,8.93932553 L179.017534,9.23453617 L179.350855,9.18244018 L181.805623,8.78998368 L182.486153,8.67884555 L182.152832,8.074532 C180.566087,5.17452159 177.750221,3.66721078 173.785093,3.60122252 L173.771205,3.60122252 L173.757317,3.60122252 C167.806153,3.86864863 164.590997,6.51165214 164.188234,11.4607717 C164.177818,11.578856 164.177818,11.9886778 164.212539,12.3880804 C164.733352,17.0350432 167.875595,19.5252318 173.559407,19.7891849 L173.573296,19.7891849 L173.587184,19.7891849 C178.232842,19.7231966 181.257033,17.965825 182.572955,14.5691661 L182.777809,14.0447331 L182.229218,13.9197027 Z" id="Fill-26" fill="#FFFFFF"></path>
                <path d="M136.830935,8.9587747 C135.92472,8.03146598 134.476858,7.56260202 132.522071,7.56260202 L132.515126,7.56260202 L132.50471,7.56260202 C130.904076,7.61122495 129.570793,7.98284305 128.529166,8.66703713 L128.529166,8.46559928 L128.529166,7.85086653 L127.914606,7.85086653 L125.897321,7.85086653 L125.282761,7.85086653 L125.282761,8.46559928 L125.282761,19.12444 L125.282761,19.7391727 L125.897321,19.7391727 L127.914606,19.7391727 L128.529166,19.7391727 L128.529166,19.12444 L128.529166,12.5429792 C128.612496,11.959504 128.914568,10.389678 132.05681,10.1361442 C133.824105,10.1986594 134.636574,10.9002188 134.692127,12.4144757 L134.692127,19.0306672 L134.692127,19.6453999 L135.306688,19.6453999 L137.323972,19.6453999 L137.938532,19.6453999 L137.938532,19.0306672 L137.938532,12.2095648 C137.969781,10.8446497 137.598268,9.7436877 136.830935,8.9587747" id="Fill-28" fill="#FFFFFF"></path>
                <path d="M61.1848385,12.4391345 C59.6987836,12.1856007 58.875898,11.8834439 58.455775,11.62991 C57.9488497,11.3277533 58.1155101,10.7095475 58.4835517,10.4942173 C58.9383957,10.164276 59.7682254,9.98714965 60.9626246,9.95936512 C62.5945074,9.95936512 63.5632207,10.5324211 64.0007042,11.7584135 L64.1812529,12.2654812 L64.7055386,12.1543431 L66.4138073,11.8000903 L67.0492,11.6646407 L66.8825396,11.0360157 C66.2818679,8.79936096 64.2368064,7.66366825 60.8063806,7.66366825 L60.7994364,7.66366825 L60.7890201,7.66366825 C57.3134571,7.76786024 55.4489443,8.91397215 55.2128421,11.0603272 C54.8934098,14.0020144 59.3828233,14.5299205 60.8688782,14.7244122 C62.0632775,14.9015386 62.8444979,15.1133956 63.3583674,15.3148335 C63.802795,15.4884868 64.1395878,15.762859 64.1812529,16.2421422 C64.2159738,16.6658563 63.9798716,17.068732 63.6048858,17.2666968 C63.2368442,17.4611885 62.7299189,17.5896919 62.08411,17.6556802 C61.8410636,17.6799917 61.167478,17.7008301 61.1049804,17.7008301 C60.8029085,17.7008301 60.480004,17.6904109 60.1536275,17.6556802 C58.9800607,17.5271767 57.7717731,17.0652589 57.4974779,15.5718404 L57.3828989,14.9466884 L56.7613947,15.082138 L55.1260399,15.4363908 L54.4941193,15.5753134 L54.6642518,16.1969923 C55.3447816,18.7219116 57.5321988,20 61.1640059,20 C61.2369198,20 61.3133058,20 61.3862197,20 C65.0041384,19.895808 66.9762861,18.6837078 67.2540533,16.3984302 C67.6047345,13.3108742 62.7854724,12.6544646 61.1848385,12.4391345" id="Fill-30" fill="#FFFFFF"></path>
                <path d="M14.6070864,1.32323829 C13.1245036,0.458444761 11.4335953,0 9.7183824,0 C7.17681187,0 4.77412497,0.97593165 2.94780517,2.75066857 C1.47911072,4.17809884 0.493036906,5.99451256 0.128467363,7.97416039 C0.0277767271,8.52290487 0,9.08206856 0,9.64123224 L0,19.5498906 L2.78461689,19.5498906 L2.78461689,10.9609975 L11.6558091,10.9609975 L11.6558091,8.17212517 L2.96169353,8.17212517 C3.67694425,5.06720383 6.49280996,2.78539923 9.7183824,2.78539923 C10.8155631,2.78539923 11.8745508,3.04240614 12.8571526,3.54600076 L14.6070864,1.32323829 Z" id="Fill-32" fill="#FFFFFF"></path>
                <path d="M14.6070864,1.32323829 C13.1245036,0.458444761 11.4335953,0 9.7183824,0 C7.17681187,0 4.77412497,0.97593165 2.94780517,2.75066857 C1.47911072,4.17809884 0.493036906,5.99451256 0.128467363,7.97416039 C0.0277767271,8.52290487 0,9.08206856 0,9.64123224 L0,19.5498906 L2.78461689,19.5498906 L2.78461689,10.9609975 L11.6558091,10.9609975 L11.6558091,8.17212517 L2.96169353,8.17212517 C3.67694425,5.06720383 6.49280996,2.78539923 9.7183824,2.78539923 C10.8155631,2.78539923 11.8745508,3.04240614 12.8571526,3.54600076 L14.6070864,1.32323829 Z" id="Stroke-34" fill="#F70000"></path>
                <path d="M3.10786856,8.05959782 C2.96898492,8.78199562 2.91343147,9.96978432 2.8995431,11.0742194 L11.8193446,11.0742194 L11.8193446,8.05959782 L3.10786856,8.05959782 Z" id="Fill-36" fill="#F70000"></path>
                <path d="M16.785129,3.18896954 L14.9761696,5.34921682 C16.2157061,6.76970097 16.8267941,8.61389921 16.6601337,10.5171396 C16.3684781,13.8547564 13.6255263,16.5602751 10.2853748,16.8138089 C10.1082982,16.8242281 9.92774948,16.8311742 9.75067285,16.8311742 C8.17434358,16.8311742 6.67440032,16.292849 5.4626406,15.3273365 L5.4626406,18.6128573 C6.78897932,19.2657938 8.25420167,19.6200465 9.75067285,19.6200465 C9.99371921,19.6200465 10.2437098,19.6096273 10.4867561,19.592262 C15.3060183,19.2345362 19.1600392,15.3238634 19.4551669,10.4997743 C19.6218272,7.77341715 18.6531139,5.14777897 16.785129,3.18896954" id="Fill-38" fill="#FFFFFF"></path>
                <path d="M16.785129,3.18896954 L14.9761696,5.34921682 C16.2157061,6.76970097 16.8267941,8.61389921 16.6601337,10.5171396 C16.3684781,13.8547564 13.6255263,16.5602751 10.2853748,16.8138089 C10.1082982,16.8242281 9.92774948,16.8311742 9.75067285,16.8311742 C8.17434358,16.8311742 6.67440032,16.292849 5.4626406,15.3273365 L5.4626406,18.6128573 C6.78897932,19.2657938 8.25420167,19.6200465 9.75067285,19.6200465 C9.99371921,19.6200465 10.2437098,19.6096273 10.4867561,19.592262 C15.3060183,19.2345362 19.1600392,15.3238634 19.4551669,10.4997743 C19.6218272,7.77341715 18.6531139,5.14777897 16.785129,3.18896954 Z" id="Stroke-40" fill="#F70000"></path>
            </g>
        </g>
    </g>
</svg>